<mxfile host="app.diagrams.net" modified="2024-01-02T22:38:10.893Z" agent="Mozilla/5.0 (Windows NT 10.0; Win64; x64) AppleWebKit/537.36 (KHTML, like Gecko) Chrome/120.0.0.0 Safari/537.36" etag="JGwhfhv7-sR03xcvxnz1" version="22.1.16" type="device">
  <diagram name="Seite-1" id="V5qHVfXuE-IiUz54amdo">
    <mxGraphModel dx="1444" dy="749" grid="1" gridSize="10" guides="1" tooltips="1" connect="1" arrows="1" fold="1" page="1" pageScale="1" pageWidth="827" pageHeight="1169" math="0" shadow="0">
      <root>
        <mxCell id="0" />
        <mxCell id="1" parent="0" />
        <mxCell id="Z09swRUZuSQYwxwFfJg8-1" value="" style="endArrow=none;html=1;rounded=0;strokeWidth=4;fillColor=#f8cecc;strokeColor=#b85450;" edge="1" parent="1">
          <mxGeometry width="50" height="50" relative="1" as="geometry">
            <mxPoint x="414" y="610" as="sourcePoint" />
            <mxPoint x="414" y="330" as="targetPoint" />
          </mxGeometry>
        </mxCell>
        <mxCell id="Z09swRUZuSQYwxwFfJg8-2" value="&lt;font style=&quot;font-size: 20px;&quot;&gt;P&lt;/font&gt;" style="text;html=1;strokeColor=none;fillColor=none;align=center;verticalAlign=middle;whiteSpace=wrap;rounded=0;" vertex="1" parent="1">
          <mxGeometry x="364" y="310" width="60" height="30" as="geometry" />
        </mxCell>
        <mxCell id="Z09swRUZuSQYwxwFfJg8-3" value="&lt;font style=&quot;font-size: 20px;&quot;&gt;Q&lt;/font&gt;" style="text;html=1;strokeColor=none;fillColor=none;align=center;verticalAlign=middle;whiteSpace=wrap;rounded=0;" vertex="1" parent="1">
          <mxGeometry x="364" y="600" width="60" height="30" as="geometry" />
        </mxCell>
        <mxCell id="Z09swRUZuSQYwxwFfJg8-5" value="" style="endArrow=none;html=1;rounded=0;strokeWidth=4;fillColor=#d5e8d4;strokeColor=#82b366;" edge="1" parent="1">
          <mxGeometry width="50" height="50" relative="1" as="geometry">
            <mxPoint x="694" y="330" as="sourcePoint" />
            <mxPoint x="414" y="330" as="targetPoint" />
          </mxGeometry>
        </mxCell>
        <mxCell id="Z09swRUZuSQYwxwFfJg8-6" value="&lt;font style=&quot;font-size: 20px;&quot;&gt;Q&#39;&lt;br&gt;&lt;/font&gt;" style="text;html=1;strokeColor=none;fillColor=none;align=center;verticalAlign=middle;whiteSpace=wrap;rounded=0;" vertex="1" parent="1">
          <mxGeometry x="684" y="300" width="60" height="30" as="geometry" />
        </mxCell>
        <mxCell id="Z09swRUZuSQYwxwFfJg8-7" value="" style="endArrow=none;dashed=1;html=1;dashPattern=1 3;strokeWidth=2;rounded=0;entryX=0.25;entryY=1;entryDx=0;entryDy=0;" edge="1" parent="1" source="Z09swRUZuSQYwxwFfJg8-13" target="Z09swRUZuSQYwxwFfJg8-6">
          <mxGeometry width="50" height="50" relative="1" as="geometry">
            <mxPoint x="414" y="610" as="sourcePoint" />
            <mxPoint x="594" y="430" as="targetPoint" />
          </mxGeometry>
        </mxCell>
        <mxCell id="Z09swRUZuSQYwxwFfJg8-8" value="" style="endArrow=none;html=1;rounded=0;strokeWidth=4;fillColor=#dae8fc;strokeColor=#6c8ebf;" edge="1" parent="1">
          <mxGeometry width="50" height="50" relative="1" as="geometry">
            <mxPoint x="474" y="550" as="sourcePoint" />
            <mxPoint x="414" y="330" as="targetPoint" />
          </mxGeometry>
        </mxCell>
        <mxCell id="Z09swRUZuSQYwxwFfJg8-9" value="" style="endArrow=none;html=1;rounded=0;strokeWidth=4;fillColor=#dae8fc;strokeColor=#6c8ebf;" edge="1" parent="1">
          <mxGeometry width="50" height="50" relative="1" as="geometry">
            <mxPoint x="554" y="470" as="sourcePoint" />
            <mxPoint x="414" y="330" as="targetPoint" />
          </mxGeometry>
        </mxCell>
        <mxCell id="Z09swRUZuSQYwxwFfJg8-10" value="" style="endArrow=none;html=1;rounded=0;strokeWidth=4;fillColor=#dae8fc;strokeColor=#6c8ebf;" edge="1" parent="1">
          <mxGeometry width="50" height="50" relative="1" as="geometry">
            <mxPoint x="634" y="390" as="sourcePoint" />
            <mxPoint x="414" y="330" as="targetPoint" />
          </mxGeometry>
        </mxCell>
        <mxCell id="Z09swRUZuSQYwxwFfJg8-14" value="" style="endArrow=none;dashed=1;html=1;dashPattern=1 3;strokeWidth=2;rounded=0;entryX=0.149;entryY=1.052;entryDx=0;entryDy=0;entryPerimeter=0;" edge="1" parent="1" target="Z09swRUZuSQYwxwFfJg8-6">
          <mxGeometry width="50" height="50" relative="1" as="geometry">
            <mxPoint x="414" y="610" as="sourcePoint" />
            <mxPoint x="699" y="330" as="targetPoint" />
          </mxGeometry>
        </mxCell>
        <mxCell id="Z09swRUZuSQYwxwFfJg8-13" value="" style="verticalLabelPosition=bottom;verticalAlign=top;html=1;shape=mxgraph.basic.arc;startAngle=0.25;endAngle=0.5;strokeWidth=2;" vertex="1" parent="1">
          <mxGeometry x="130" y="50" width="560" height="560" as="geometry" />
        </mxCell>
      </root>
    </mxGraphModel>
  </diagram>
</mxfile>
